<?xml version="1.0" encoding="UTF-8" standalone="no"?>
<!-- Created with Inkscape (http://www.inkscape.org/) -->

<svg
   xmlns:dc="http://purl.org/dc/elements/1.1/"
   xmlns:cc="http://creativecommons.org/ns#"
   xmlns:rdf="http://www.w3.org/1999/02/22-rdf-syntax-ns#"
   xmlns:svg="http://www.w3.org/2000/svg"
   xmlns="http://www.w3.org/2000/svg"
   xmlns:sodipodi="http://sodipodi.sourceforge.net/DTD/sodipodi-0.dtd"
   xmlns:inkscape="http://www.inkscape.org/namespaces/inkscape"
   version="1.1"
   width="100"
   height="75"
   id="svg2"
   inkscape:version="0.48.3.1 r9886"
   sodipodi:docname="impressive-editor.svg">
  <metadata
     id="metadata16">
    <rdf:RDF>
      <cc:Work
         rdf:about="">
        <dc:format>image/svg+xml</dc:format>
        <dc:type
           rdf:resource="http://purl.org/dc/dcmitype/StillImage" />
      </cc:Work>
    </rdf:RDF>
  </metadata>
  <sodipodi:namedview
     pagecolor="#ffffff"
     bordercolor="#666666"
     borderopacity="1"
     objecttolerance="10"
     gridtolerance="10"
     guidetolerance="10"
     inkscape:pageopacity="0"
     inkscape:pageshadow="2"
     inkscape:window-width="1280"
     inkscape:window-height="746"
     id="namedview14"
     showgrid="true"
     inkscape:snap-bbox="true"
     inkscape:zoom="4"
     inkscape:cx="44.476412"
     inkscape:cy="31.6499"
     inkscape:window-x="0"
     inkscape:window-y="27"
     inkscape:window-maximized="1"
     inkscape:current-layer="layer1">
    <inkscape:grid
       type="xygrid"
       id="grid2993"
       empspacing="5"
       visible="true"
       enabled="true"
       snapvisiblegridlinesonly="true" />
  </sodipodi:namedview>
  <defs
     id="defs4" />
  <g
     transform="matrix(1.9999985,0,0,1.8333351,18.000041,-1862.4993)"
     id="layer1">
    <g
       id="g3784"
       style="fill:#000000;stroke:none">
      <path
         d="m 3,1024.3622 26,0 0,23 -26,0 z"
         style="fill:#ffffff;stroke:none"
         id="path6"
         inkscape:connector-curvature="0" />
      <path
         d="m 2.8125,1021.3622 c -0.9831677,0.093 -1.81675811,1.0125 -1.8125,2 l 0,26 c 1.047e-4,1.0472 0.9528311,1.9999 2,2 l 26,0 c 1.047169,-10e-5 1.999895,-0.9528 2,-2 l 0,-26 c -1.05e-4,-1.0472 -0.952831,-1.9999 -2,-2 l -26,0 c -0.062454,0 -0.1250458,0 -0.1875,0 z m 2.1874832,3.8182 22.0000168,0 0,16.9091 -22.0000168,0 z"
         style="fill:#000000;stroke:none"
         id="path8"
         inkscape:connector-curvature="0"
         sodipodi:nodetypes="ccccccccscccccc" />
    </g>
    <path
       d="m 14.948418,1040.2938 c -0.956968,-0.2581 -1.595877,-1.3436 -1.284505,-2.2983 0.19826,-0.7444 0.993794,-1.1858 1.736329,-1.0989 0.571444,-0.018 1.098166,0.3223 1.35059,0.8293 0.477459,0.6462 0.28135,1.5732 -0.269586,2.1082 -0.384587,0.4028 -0.984843,0.644 -1.532828,0.4597 z m 1.115912,-13.1561 c 0.605259,-0.3637 1.497863,-0.3922 1.968559,0.2053 0.467859,0.4846 0.429894,1.2018 0.287995,1.8104 -0.418426,2.3199 -0.999578,4.6054 -1.537229,6.8996 -0.705535,0 -1.411071,0 -2.116607,0 0.250681,-2.4525 0.08841,-4.9497 0.611173,-7.3722 0.146504,-0.5534 0.29785,-1.1887 0.78611,-1.5431 z"
       style="fill:#000000;stroke:none"
       id="path10"
       inkscape:connector-curvature="0" />
  </g>
</svg>
